<svg xmlns="http://www.w3.org/2000/svg" width="256.00001" height="255.99999" viewBox="0 0 67.73334 67.73333">
  <g color="#000" font-weight="400" font-family="sans-serif">
    <path style="line-height:normal;font-variant-ligatures:normal;font-variant-position:normal;font-variant-caps:normal;font-variant-numeric:normal;font-variant-alternates:normal;font-variant-east-asian:normal;font-feature-settings:normal;font-variation-settings:normal;text-indent:0;text-align:start;text-decoration-line:none;text-decoration-style:solid;text-decoration-color:#000;text-transform:none;text-orientation:mixed;white-space:normal;shape-padding:0;shape-margin:0;inline-size:0;isolation:auto;mix-blend-mode:normal;solid-color:#000;solid-opacity:1" d="M17.44585 24.28015c3.7987.02627 6.84381 3.16383 6.80143 7.0079-.04239 3.84408-3.1562 6.93904-6.95489 6.91277-3.7987-.0263-6.84381-3.16384-6.80143-7.00791.0424-3.84408 3.1562-6.93903 6.95489-6.91276z" overflow="visible" fill="black" fill-rule="evenodd"/>
    <path style="line-height:normal;font-variant-ligatures:normal;font-variant-position:normal;font-variant-caps:normal;font-variant-numeric:normal;font-variant-alternates:normal;font-variant-east-asian:normal;font-feature-settings:normal;font-variation-settings:normal;text-indent:0;text-align:start;text-decoration-line:none;text-decoration-style:solid;text-decoration-color:#000;text-transform:none;text-orientation:mixed;white-space:normal;shape-padding:0;shape-margin:0;inline-size:0;isolation:auto;mix-blend-mode:normal;solid-color:#000;solid-opacity:1" d="M17.44653 24.19144c-3.8572-.02668-7.00971 3.11394-7.05257 7.00083-.04282 3.88688 3.04026 7.07057 6.89746 7.09727 3.8572.0267 7.0097-3.11394 7.05257-7.00082.04282-3.88689-3.04027-7.0706-6.89747-7.09728zm-.0012.17665c3.74019.02587 6.74727 3.11828 6.70537 6.91955-.04192 3.80126-3.11791 6.85113-6.8581 6.82526-3.74019-.02591-6.74608-3.11829-6.70417-6.91955.0419-3.80127 3.1167-6.85113 6.8569-6.82526z" overflow="visible" fill-rule="evenodd"/>
    <path style="line-height:normal;font-variant-ligatures:normal;font-variant-position:normal;font-variant-caps:normal;font-variant-numeric:normal;font-variant-alternates:normal;font-variant-east-asian:normal;font-feature-settings:normal;font-variation-settings:normal;text-indent:0;text-align:start;text-decoration-line:none;text-decoration-style:solid;text-decoration-color:#000;text-transform:none;text-orientation:mixed;white-space:normal;shape-padding:0;shape-margin:0;inline-size:0;isolation:auto;mix-blend-mode:normal;solid-color:#000;solid-opacity:1" d="M16.6799 25.26653c3.73141.0258 6.7248 2.90782 6.6859 6.43714-.03892 3.52931-3.09538 6.36948-6.8268 6.34367-3.7314-.0258-6.7248-2.90782-6.68589-6.43713.03891-3.52932 3.09538-6.36949 6.82679-6.34368z" overflow="visible" fill="black" fill-rule="evenodd"/>
    <path style="line-height:normal;font-variant-ligatures:normal;font-variant-position:normal;font-variant-caps:normal;font-variant-numeric:normal;font-variant-alternates:normal;font-variant-east-asian:normal;font-feature-settings:normal;font-variation-settings:normal;text-indent:0;text-align:start;text-decoration-line:none;text-decoration-style:solid;text-decoration-color:#000;text-transform:none;text-orientation:mixed;white-space:normal;shape-padding:0;shape-margin:0;inline-size:0;isolation:auto;mix-blend-mode:normal;solid-color:#000;solid-opacity:1" d="M16.68054 25.17871c-3.7861-.02618-6.88549 2.85567-6.9249 6.4308-.0394 3.5751 2.99682 6.49997 6.78291 6.52615 3.7861.02619 6.8855-2.85568 6.92491-6.4308.0394-3.57511-2.99683-6.49996-6.78292-6.52615zm-.0012.17556c3.67673.02543 6.62805 2.86491 6.58964 6.34843-.03842 3.48351-3.0525 6.28174-6.72923 6.25631-3.67673-.0254-6.62804-2.86491-6.58964-6.34843.03842-3.48351 3.0525-6.28174 6.72923-6.2563z" overflow="visible" fill-rule="evenodd"/>
    <path style="line-height:normal;font-variant-ligatures:normal;font-variant-position:normal;font-variant-caps:normal;font-variant-numeric:normal;font-variant-alternates:normal;font-variant-east-asian:normal;font-feature-settings:normal;font-variation-settings:normal;text-indent:0;text-align:start;text-decoration-line:none;text-decoration-style:solid;text-decoration-color:#000;text-transform:none;text-orientation:mixed;white-space:normal;shape-padding:0;shape-margin:0;inline-size:0;isolation:auto;mix-blend-mode:normal;solid-color:#000;solid-opacity:1" d="M5.08815 52.98089v8.9972c0 1.13283 1.28553 2.04482 2.88234 2.04482h51.88217c1.59682 0 2.88235-.91199 2.88235-2.04481v-8.99721z" overflow="visible"/>
    <path style="line-height:normal;font-variant-ligatures:normal;font-variant-position:normal;font-variant-caps:normal;font-variant-numeric:normal;font-variant-alternates:normal;font-variant-east-asian:normal;font-feature-settings:normal;font-variation-settings:normal;text-indent:0;text-align:start;text-decoration-line:none;text-decoration-style:solid;text-decoration-color:#000;text-transform:none;text-orientation:mixed;white-space:normal;shape-padding:0;shape-margin:0;inline-size:0;isolation:auto;mix-blend-mode:normal;solid-color:#000;solid-opacity:1" d="M4.9961 52.88867V61.97852c0 .60144.34166 1.13896.88085 1.52148.5392.38252 1.27772.61524 2.09375.61524h51.88282c.81603 0 1.5526-.23272 2.0918-.61524.53918-.38252.8828-.92004.8828-1.52148v-9.08985zm.18554.18555h57.46094v8.9043c0 .53138-.29996 1.0144-.80274 1.37109-.50277.35668-1.20554.58008-1.98632.58008H7.9707c-.78078 0-1.48355-.2234-1.98632-.58008-.50278-.35668-.80274-.83971-.80274-1.3711zM21.52935 31.20835c0 2.15594-1.75104 3.90366-3.91108 3.90366-2.16005 0-3.91104-1.74772-3.91104-3.90366 0-2.15592 1.75106-3.90363 3.9111-3.90363 2.16003 0 3.91102 1.74777 3.91102 3.90363zm10.72786 2.88015c-.5102-9.4237-8.07276-16.98138-17.52452-17.49114-.55789-.0302-1.02545.41729-1.02545.9749v2.93008c0 .51294.39635.9431.90917.97638 6.82977.444 12.30429 5.8945 12.75005 12.72578.03336.51184.46439.90744.97825.90744h2.93566c.55874.00007 1.007-.4666.97684-1.02344zm8.80952.0175C40.55409 19.85342 29.06462 8.3187 14.7151 7.80454c-.55149-.0197-1.00787.42493-1.00787.97566v2.93c0 .52574.41742.95364.94374.97523 11.67562.47783 21.04694 9.83307 21.52562 21.48463.02151.52532.45028.94195.97708.94195h2.9356c.55173-.00006.99723-.45558.97745-1.00601z" overflow="visible"/>
    <path style="line-height:normal;font-variant-ligatures:normal;font-variant-position:normal;font-variant-caps:normal;font-variant-numeric:normal;font-variant-alternates:normal;font-variant-east-asian:normal;font-feature-settings:normal;font-variation-settings:normal;text-indent:0;text-align:start;text-decoration-line:none;text-decoration-style:solid;text-decoration-color:#000;text-transform:none;text-orientation:mixed;white-space:normal;shape-padding:0;shape-margin:0;inline-size:0;isolation:auto;mix-blend-mode:normal;solid-color:#000;solid-opacity:1" d="M14.71875 7.7129c-.60298-.02155-1.10352.4645-1.10352 1.0664v2.93164c0 .57475.45688 1.04284 1.03125 1.0664 11.6283.4759 20.96078 9.79243 21.4375 21.39649.0235.57358.4947 1.03125 1.07032 1.03125h2.93554c.6027-.00007 1.09196-.49943 1.07032-1.10156-.51437-14.30046-12.04413-25.87476-26.44141-26.39063zm-.0078.18358c14.30175.51245 25.75275 12.0082 26.26367 26.2129.01793.49872-.384.9101-.88476.91015H37.1543c-.47798 0-.86523-.37646-.88477-.85351-.48064-11.69906-9.8923-21.0925-21.61524-21.57227-.47825-.01962-.85352-.40609-.85352-.88281V8.7793c0-.49957.41018-.90068.91016-.88282zm.02734 8.60938c-.60998-.03302-1.12305.45702-1.12305 1.0664v2.9297c0 .56064.4349 1.03193.9961 1.06835 6.78401.44103 12.21934 5.85532 12.6621 12.64063.03654.5604.50892.99414 1.07032.99414h2.9375c.61031.00008 1.10135-.51199 1.06836-1.1211-.51274-9.47035-8.11308-17.06585-17.61134-17.57812zm-.0098.1836c9.40526.50724 16.92787 8.02725 17.43555 17.40429.02733.50457-.37564.92585-.88282.92578h-2.9375c-.46634 0-.85457-.35704-.88476-.82031-.44877-6.87724-5.9604-12.36553-12.83594-12.8125-.46443-.03014-.82227-.41953-.82227-.88477v-2.92968c0-.50586.42194-.9102.92774-.88282zm2.89063 10.52343c-2.21 0-4.00391 1.79003-4.00391 3.9961 0 2.20607 1.7939 3.99609 4.0039 3.99609s4.00196-1.79001 4.00196-3.9961c0-2.206-1.79197-3.99609-4.00195-3.99609zm0 .1836c2.11008 0 3.81835 1.70678 3.81835 3.8125 0 2.1058-1.70826 3.81054-3.81835 3.81054-2.1101 0-3.81836-1.70475-3.81836-3.81055 0-2.10577 1.70827-3.8125 3.81836-3.8125z" overflow="visible"/>
    <path style="line-height:normal;font-variant-ligatures:normal;font-variant-position:normal;font-variant-caps:normal;font-variant-numeric:normal;font-variant-alternates:normal;font-variant-east-asian:normal;font-feature-settings:normal;font-variation-settings:normal;text-indent:0;text-align:start;text-decoration-line:none;text-decoration-style:solid;text-decoration-color:#000;text-transform:none;text-orientation:mixed;white-space:normal;shape-padding:0;shape-margin:0;inline-size:0;isolation:auto;mix-blend-mode:normal;solid-color:#000;solid-opacity:1" d="M62.74292 53.19817V49.6741s-11.0316-18.74313-11.87917-20.18714l-1.36329 1.36012c-4.15056 5.23655-8.7023 10.68196-12.5966 16.38339 0 0-9.92507-7.39767-10.52651-7.23777-.60158.15897.80254-.32031 0 0-.80246.31777.49161-.132 0 0C15.82009 46.74298 5.12193 53.3785 5.12193 53.3785l50.54467-.18117z" overflow="visible"/>
    <path style="line-height:normal;font-variant-ligatures:normal;font-variant-position:normal;font-variant-caps:normal;font-variant-numeric:normal;font-variant-alternates:normal;font-variant-east-asian:normal;font-feature-settings:normal;font-variation-settings:normal;text-indent:0;text-align:start;text-decoration-line:none;text-decoration-style:solid;text-decoration-color:#000;text-transform:none;text-orientation:mixed;white-space:normal;shape-padding:0;shape-margin:0;inline-size:0;isolation:auto;mix-blend-mode:normal;solid-color:#000;solid-opacity:1" d="M50.88281 29.33594l-1.45117 1.44922-.0039.0039c-4.1306 5.21136-8.65703 10.63434-12.54297 16.3125-.07174-.05345-2.44522-1.82193-4.96484-3.625-1.2787-.91506-2.57685-1.82578-3.59375-2.49805-.50845-.33613-.94501-.61188-1.27735-.80078-.1569-.08918-.28649-.15541-.39453-.20313.0046-.0024.01133-.0053.01563-.0078.0034-.002.0076-.0031.01172-.0059.0041-.0028.01502-.01306.01563-.01367a2.06258 2.06258 0 00.01367-.01953c.00008-.00012.0097-.01747.0098-.01758a9.58666 9.58666 0 00.0039-.03125c0-.0001-.0078-.03703-.0078-.0371a12.71688 12.71688 0 00-.02344-.03126 6.35976 6.35976 0 00-.02148-.01367c-.0001-.00005-.01548-.0058-.01563-.0059a1.24421 1.24421 0 00-.01953-.0039.28919.28919 0 00-.01172 0c-.0061.00026-.0099.0014-.01367.002a.24133.24133 0 00-.02148.0039.73536.73536 0 00-.04492.01172 3.25818 3.25818 0 00-.12304.03906c-.0895.03054-.17573.062-.22657.0879-.0064.0032-.013.0058-.02148.01171-.0042.0029-.01696.01498-.01758.01563a1.80334 1.80334 0 00-.01367.01758c-.00005.0001-.002.0077-.0039.01367-.0017.00075-.0061.0032-.0078.0039-.02206.0096-.03803.01698-.05078.02344-.0064.0032-.01183.0047-.01953.0098-.0039.0025-.0151.01317-.01563.01367a3.33004 3.33004 0 00-.01758.01953c-.00005.0001-.0097.02335-.0098.02344-.00001.00006.0005.01374 0 .0254-10.4042 6.64656-20.94535 13.1914-20.94535 13.1914l.05078.16991 50.54297-.18164 7.16992.002v-3.64258l-.01367-.02148S51.79044 30.8827 50.94337 29.4395zm-.03906.30078c.9458 1.61083 11.78128 20.01745 11.80664 20.06055v3.4082h-6.98437l-50.2207.17773c.27051-.16782 10.5029-6.51656 20.86913-13.14258.04853-.0171.08854-.03266.1289-.04882.02883.0077.06756.02053.11524.04101.10019.04303.23566.11256.39844.20508.32557.18506.76098.46001 1.26758.79492 1.0132.66983 2.31015 1.57977 3.58789 2.49415 2.55549 1.82874 5.03516 3.67773 5.03516 3.67773l.07813.0586.05469-.08009c3.88898-5.69364 8.4359-11.1355 12.58593-16.3711zm-24.74219 10.3789c.00093-.0001.0024.00009.0039 0-.0015.00039-.0049.0017-.0059.002l.002-.002z" overflow="visible"/>
    <path style="line-height:normal;font-variant-ligatures:normal;font-variant-position:normal;font-variant-caps:normal;font-variant-numeric:normal;font-variant-alternates:normal;font-variant-east-asian:normal;font-feature-settings:normal;font-variation-settings:normal;text-indent:0;text-align:start;text-decoration-line:none;text-decoration-style:solid;text-decoration-color:#000;text-transform:none;text-orientation:mixed;white-space:normal;shape-padding:0;shape-margin:0;inline-size:0;isolation:auto;mix-blend-mode:normal;solid-color:#000;solid-opacity:1" d="M5.69422.00031C2.28016.00031.00034 2.87809.00034 5.85073V61.8826c0 2.97264 2.27981 5.85042 5.69388 5.85042h56.3449c3.41406 0 5.69387-2.87778 5.69387-5.85042V5.85073c0-2.97264-2.27982-5.85042-5.69388-5.85042zm0 4.69708h56.3449c.0543 0 .56666.2458.56666 1.15334V61.8826c0 .90754-.51237 1.15245-.56667 1.15245H5.69421c-.05429 0-.56666-.2449-.56666-1.15245V5.85073c0-.90755.51237-1.15334.56667-1.15334z" overflow="visible"/>
    <path style="line-height:normal;font-variant-ligatures:normal;font-variant-position:normal;font-variant-caps:normal;font-variant-numeric:normal;font-variant-alternates:normal;font-variant-east-asian:normal;font-feature-settings:normal;font-variation-settings:normal;text-indent:0;text-align:start;text-decoration-line:none;text-decoration-style:solid;text-decoration-color:#000;text-transform:none;text-orientation:mixed;white-space:normal;shape-padding:0;shape-margin:0;inline-size:0;isolation:auto;mix-blend-mode:normal;solid-color:#000;solid-opacity:1" d="M5.69422-.08875c-3.4734 0-5.79108 2.92532-5.79108 5.93948V61.8826c0 3.01417 2.31768 5.93948 5.79108 5.93948h56.3449c3.47339 0 5.79107-2.92531 5.79107-5.93948V5.85073c0-3.01416-2.31769-5.93948-5.79108-5.93948zm0 .17812h56.3449c3.35472 0 5.59667 2.83025 5.59667 5.76136V61.8826c0 2.9311-2.24194 5.76136-5.59668 5.76136H5.69421c-3.35473 0-5.59667-2.83025-5.59667-5.76136V5.85073c0-2.9311 2.24195-5.76136 5.59668-5.76136zm0 4.51896c-.04662 0-.05622.01013-.08165.02137-.02543.01125-.05439.0275-.0865.04898-.06424.04296-.14124.10856-.21481.20395-.14714.1908-.2809.49904-.2809.9681V61.8826c0 .46905.13373.7775.2809.9681.07358.09528.15055.16108.2148.20394.03213.02143.06108.0369.08651.0481.02543.01121.03517.02138.08165.02138h56.3449c.04647 0 .0562-.01017.08164-.02139.02543-.01122.05438-.02667.08651-.04809.06425-.04286.14122-.10866.21481-.20395.14717-.19059.2809-.49904.2809-.9681V5.85074c0-.46906-.13376-.7773-.2809-.9681-.07357-.09539-.15057-.16099-.2148-.20394-.0321-.02148-.06108-.03774-.08652-.04899-.02543-.01124-.03504-.02137-.08165-.02137zm0 .17812h56.3449c-.03305 0-.01494-.00306-.002.0027.01298.00573.03284.0163.05636.03205.04713.0315.1088.08438.1701.16387.12262.159.24494.42719.24494.86568V61.8826c0 .43848-.12235.70692-.24494.86567-.0613.07938-.123.13157-.1701.16298-.02354.0157-.0434.02636-.05637.03206-.01299.0057-.03095.0027.002.0027H5.69421c.0329 0 .01493.0032.00195-.0027-.01298-.0057-.03283-.01637-.05638-.03206-.04708-.03142-.1088-.0836-.1701-.16298-.12258-.15875-.24493-.42719-.24493-.86567V5.85073c0-.43849.12232-.70668.24494-.86567.0613-.0795.123-.13238.1701-.16388.02354-.01574.04339-.02632.05637-.03206.01298-.00574.0311-.00269-.00194-.00269z" overflow="visible"/>
  </g>
</svg>