<?xml version="1.0" encoding="UTF-8" standalone="no"?>
<svg
   xmlns:dc="http://purl.org/dc/elements/1.1/"
   xmlns:cc="http://creativecommons.org/ns#"
   xmlns:rdf="http://www.w3.org/1999/02/22-rdf-syntax-ns#"
   xmlns:svg="http://www.w3.org/2000/svg"
   xmlns="http://www.w3.org/2000/svg"
   xmlns:sodipodi="http://sodipodi.sourceforge.net/DTD/sodipodi-0.dtd"
   xmlns:inkscape="http://www.inkscape.org/namespaces/inkscape"
   width="67.733337mm"
   height="67.73333mm"
   viewBox="0 0 67.733337 67.733329"
   version="1.1"
   id="svg7324"
   inkscape:version="1.0.2-2 (e86c870879, 2021-01-15)"
   sodipodi:docname="riotd_admin_icon_color.svg">
  <defs
     id="defs7318" />
  <sodipodi:namedview
     id="base"
     pagecolor="#ffffff"
     bordercolor="#666666"
     borderopacity="1.0"
     inkscape:pageopacity="0.0"
     inkscape:pageshadow="2"
     inkscape:zoom="1.4"
     inkscape:cx="292.38264"
     inkscape:cy="108.82759"
     inkscape:document-units="mm"
     inkscape:current-layer="layer1"
     inkscape:document-rotation="0"
     showgrid="false"
     inkscape:window-width="1920"
     inkscape:window-height="1027"
     inkscape:window-x="-8"
     inkscape:window-y="-8"
     inkscape:window-maximized="1" />
  <metadata
     id="metadata7321">
    <rdf:RDF>
      <cc:Work
         rdf:about="">
        <dc:format>image/svg+xml</dc:format>
        <dc:type
           rdf:resource="http://purl.org/dc/dcmitype/StillImage" />
        <dc:title></dc:title>
      </cc:Work>
    </rdf:RDF>
  </metadata>
  <g
     inkscape:groupmode="layer"
     id="layer1"
     inkscape:label="Layer 1"
     style="display:inline">
    <rect
       style="opacity:0.872;fill:#296eb4;fill-opacity:1;stroke:#000000;stroke-width:0.124203;stroke-miterlimit:3.33333;stroke-dasharray:none;stroke-opacity:1"
       id="rect914"
       width="60.404465"
       height="61.710457"
       x="4.4326487"
       y="2.9376612"
       inkscape:export-xdpi="95.730003"
       inkscape:export-ydpi="95.730003" />
    <path
       style="color:#000000;font-style:normal;font-variant:normal;font-weight:normal;font-stretch:normal;font-size:medium;line-height:normal;font-family:sans-serif;font-variant-ligatures:normal;font-variant-position:normal;font-variant-caps:normal;font-variant-numeric:normal;font-variant-alternates:normal;font-variant-east-asian:normal;font-feature-settings:normal;font-variation-settings:normal;text-indent:0;text-align:start;text-decoration:none;text-decoration-line:none;text-decoration-style:solid;text-decoration-color:#000000;letter-spacing:normal;word-spacing:normal;text-transform:none;writing-mode:lr-tb;direction:ltr;text-orientation:mixed;dominant-baseline:auto;baseline-shift:baseline;text-anchor:start;white-space:normal;shape-padding:0;shape-margin:0;inline-size:0;clip-rule:nonzero;display:inline;overflow:visible;visibility:visible;isolation:auto;mix-blend-mode:normal;color-interpolation:sRGB;color-interpolation-filters:linearRGB;solid-color:#000000;solid-opacity:1;vector-effect:none;fill:#f7a000;fill-opacity:1;fill-rule:nonzero;stroke:none;stroke-width:0.185208;stroke-linecap:butt;stroke-linejoin:miter;stroke-miterlimit:3.33333;stroke-dasharray:none;stroke-dashoffset:0;stroke-opacity:1;color-rendering:auto;image-rendering:auto;shape-rendering:auto;text-rendering:auto;enable-background:accumulate;stop-color:#000000"
       d="m 21.529355,31.208348 c 0,2.15594 -1.75104,3.90366 -3.911089,3.90366 -2.160047,0 -3.911031,-1.74772 -3.911031,-3.90366 0,-2.15592 1.751055,-3.90363 3.911093,-3.90363 2.160035,0 3.911027,1.74777 3.911027,3.90363 z m 10.727855,2.88015 c -0.5102,-9.4237 -8.072759,-16.98138 -17.52452,-17.49114 -0.557886,-0.0302 -1.025455,0.41729 -1.025455,0.97491 v 2.93007 c 0,0.51294 0.396356,0.9431 0.90917,0.97638 6.829778,0.444 12.304292,5.89451 12.750057,12.72578 0.03336,0.51184 0.464385,0.90744 0.978253,0.90744 h 2.935654 c 0.558743,7e-5 1.007,-0.4666 0.976841,-1.02344 z m 8.809519,0.0175 C 40.554089,19.853418 29.064618,8.3186984 14.715105,7.8045384 c -0.551482,-0.0197 -1.00787,0.42493 -1.00787,0.97566 v 2.9299996 c 0,0.52574 0.417429,0.95364 0.943742,0.97523 11.67562,0.47783 21.046943,9.83307 21.525623,21.48463 0.02151,0.52532 0.450284,0.94195 0.977083,0.94195 h 2.935588 c 0.551735,-6e-5 0.997243,-0.45558 0.977458,-1.00601 z"
       id="path886"
       inkscape:export-xdpi="95.730003"
       inkscape:export-ydpi="95.730003" />
    <path
       style="color:#000000;font-style:normal;font-variant:normal;font-weight:normal;font-stretch:normal;font-size:medium;line-height:normal;font-family:sans-serif;font-variant-ligatures:normal;font-variant-position:normal;font-variant-caps:normal;font-variant-numeric:normal;font-variant-alternates:normal;font-variant-east-asian:normal;font-feature-settings:normal;font-variation-settings:normal;text-indent:0;text-align:start;text-decoration:none;text-decoration-line:none;text-decoration-style:solid;text-decoration-color:#000000;letter-spacing:normal;word-spacing:normal;text-transform:none;writing-mode:lr-tb;direction:ltr;text-orientation:mixed;dominant-baseline:auto;baseline-shift:baseline;text-anchor:start;white-space:normal;shape-padding:0;shape-margin:0;inline-size:0;clip-rule:nonzero;display:inline;overflow:visible;visibility:visible;isolation:auto;mix-blend-mode:normal;color-interpolation:sRGB;color-interpolation-filters:linearRGB;solid-color:#000000;solid-opacity:1;vector-effect:none;fill:#f7a000;fill-opacity:1;fill-rule:nonzero;stroke:none;stroke-linecap:butt;stroke-linejoin:miter;stroke-miterlimit:3.33333;stroke-dasharray:none;stroke-dashoffset:0;stroke-opacity:1;color-rendering:auto;image-rendering:auto;shape-rendering:auto;text-rendering:auto;enable-background:accumulate;stop-color:#000000"
       d="m 14.71875,7.7128906 c -0.602983,-0.02154 -1.103516,0.4645158 -1.103516,1.0664063 v 2.9316411 c 0,0.574757 0.456875,1.042844 1.03125,1.066406 11.6283,0.475893 20.960772,9.792422 21.4375,21.396484 0.02349,0.573584 0.494689,1.03125 1.070313,1.03125 h 2.935547 c 0.6027,-6.5e-5 1.091956,-0.499428 1.070312,-1.101562 C 40.645794,19.803058 29.116026,8.228762 14.71875,7.7128906 Z m -0.0078,0.1835938 C 29.0127,8.408933 40.463703,19.904672 40.974621,34.109375 c 0.01793,0.498726 -0.383995,0.910102 -0.884765,0.910156 h -2.935547 c -0.477974,0 -0.865232,-0.376459 -0.884766,-0.853515 C 35.7889,22.466958 26.377237,13.073517 14.654297,12.59375 14.176046,12.574132 13.800781,12.18766 13.800781,11.710938 V 8.7792969 c 0,-0.4995695 0.410175,-0.9006728 0.910157,-0.8828125 z m 0.02734,8.6093746 c -0.609977,-0.03302 -1.123047,0.45702 -1.123047,1.066407 v 2.929687 c 0,0.560644 0.434897,1.03194 0.996094,1.068359 6.784017,0.441026 12.219344,5.855322 12.66211,12.640626 0.03653,0.560408 0.508917,0.99414 1.070312,0.99414 h 2.9375 c 0.610312,7.7e-5 1.101349,-0.511984 1.068359,-1.121094 C 31.836883,24.613627 24.23654,17.018127 14.738281,16.505859 Z m -0.0098,0.183594 c 9.405263,0.507252 16.927873,8.027255 17.435546,17.404297 0.02733,0.50457 -0.375638,0.925845 -0.882812,0.925781 h -2.9375 c -0.466341,0 -0.854571,-0.357041 -0.884766,-0.820312 -0.448764,-6.877237 -5.960398,-12.365525 -12.835937,-12.8125 -0.464431,-0.03014 -0.822266,-0.41953 -0.822266,-0.884766 v -2.929687 c 0,-0.505854 0.42194,-0.910193 0.927735,-0.882813 z m 2.890625,10.523438 c -2.20999,0 -4.003907,1.790031 -4.003907,3.996093 0,2.20608 1.793908,3.996094 4.003907,3.996094 2.21,0 4.001953,-1.790012 4.001953,-3.996094 0,-2.206002 -1.791965,-3.996093 -4.001953,-3.996093 z m 0,0.183593 c 2.110081,0 3.818359,1.706783 3.818359,3.8125 0,2.105799 -1.708262,3.810547 -3.818359,3.810547 -2.110096,0 -3.81836,-1.704747 -3.81836,-3.810547 0,-2.105777 1.708273,-3.8125 3.81836,-3.8125 z"
       id="path888"
       inkscape:export-xdpi="95.730003"
       inkscape:export-ydpi="95.730003" />
    <path
       style="color:#000000;font-style:normal;font-variant:normal;font-weight:normal;font-stretch:normal;font-size:medium;line-height:normal;font-family:sans-serif;font-variant-ligatures:normal;font-variant-position:normal;font-variant-caps:normal;font-variant-numeric:normal;font-variant-alternates:normal;font-variant-east-asian:normal;font-feature-settings:normal;font-variation-settings:normal;text-indent:0;text-align:start;text-decoration:none;text-decoration-line:none;text-decoration-style:solid;text-decoration-color:#000000;letter-spacing:normal;word-spacing:normal;text-transform:none;writing-mode:lr-tb;direction:ltr;text-orientation:mixed;dominant-baseline:auto;baseline-shift:baseline;text-anchor:start;white-space:normal;shape-padding:0;shape-margin:0;inline-size:0;clip-rule:nonzero;display:inline;overflow:visible;visibility:visible;isolation:auto;mix-blend-mode:normal;color-interpolation:sRGB;color-interpolation-filters:linearRGB;solid-color:#000000;solid-opacity:1;vector-effect:none;fill:#f7a26d;fill-opacity:1;fill-rule:evenodd;stroke:none;stroke-width:0.185208;stroke-linecap:butt;stroke-linejoin:miter;stroke-miterlimit:3.33333;stroke-dasharray:none;stroke-dashoffset:0;stroke-opacity:1;color-rendering:auto;image-rendering:auto;shape-rendering:auto;text-rendering:auto;enable-background:accumulate;stop-color:#000000"
       d="m 17.445847,24.280152 c 3.798695,0.02627 6.843814,3.163827 6.801437,7.007904 -0.04239,3.844073 -3.156201,6.939033 -6.95489,6.912761 -3.798696,-0.0263 -6.843814,-3.163837 -6.801438,-7.007907 0.0424,-3.844077 3.156196,-6.939032 6.954891,-6.912758 z"
       id="path868"
       inkscape:export-xdpi="95.730003"
       inkscape:export-ydpi="95.730003" />
    <path
       style="color:#000000;font-style:normal;font-variant:normal;font-weight:normal;font-stretch:normal;font-size:medium;line-height:normal;font-family:sans-serif;font-variant-ligatures:normal;font-variant-position:normal;font-variant-caps:normal;font-variant-numeric:normal;font-variant-alternates:normal;font-variant-east-asian:normal;font-feature-settings:normal;font-variation-settings:normal;text-indent:0;text-align:start;text-decoration:none;text-decoration-line:none;text-decoration-style:solid;text-decoration-color:#000000;letter-spacing:normal;word-spacing:normal;text-transform:none;writing-mode:lr-tb;direction:ltr;text-orientation:mixed;dominant-baseline:auto;baseline-shift:baseline;text-anchor:start;white-space:normal;shape-padding:0;shape-margin:0;inline-size:0;clip-rule:nonzero;display:inline;overflow:visible;visibility:visible;isolation:auto;mix-blend-mode:normal;color-interpolation:sRGB;color-interpolation-filters:linearRGB;solid-color:#000000;solid-opacity:1;vector-effect:none;fill:#f7a000;fill-opacity:1;fill-rule:evenodd;stroke:none;stroke-width:0.582199;stroke-linecap:butt;stroke-linejoin:miter;stroke-miterlimit:3.33333;stroke-dasharray:none;stroke-dashoffset:0;stroke-opacity:1;color-rendering:auto;image-rendering:auto;shape-rendering:auto;text-rendering:auto;enable-background:accumulate;stop-color:#000000"
       d="m 17.446525,24.191442 c -3.857199,-0.02668 -7.009705,3.113941 -7.05257,7.000827 -0.04282,3.886881 3.040268,7.07057 6.897467,7.097276 3.857193,0.02669 7.009705,-3.113943 7.05257,-7.000825 0.04282,-3.886885 -3.040268,-7.0706 -6.897467,-7.097278 z m -0.0012,0.176647 c 3.740191,0.02587 6.747277,3.11828 6.70537,6.919547 -0.04191,3.801263 -3.117905,6.85113 -6.85809,6.825262 -3.740191,-0.02591 -6.746085,-3.118287 -6.704179,-6.919545 0.04191,-3.801269 3.116708,-6.851133 6.856899,-6.825264 z"
       id="path870"
       inkscape:export-xdpi="95.730003"
       inkscape:export-ydpi="95.730003" />
    <path
       style="color:#000000;font-style:normal;font-variant:normal;font-weight:normal;font-stretch:normal;font-size:medium;line-height:normal;font-family:sans-serif;font-variant-ligatures:normal;font-variant-position:normal;font-variant-caps:normal;font-variant-numeric:normal;font-variant-alternates:normal;font-variant-east-asian:normal;font-feature-settings:normal;font-variation-settings:normal;text-indent:0;text-align:start;text-decoration:none;text-decoration-line:none;text-decoration-style:solid;text-decoration-color:#000000;letter-spacing:normal;word-spacing:normal;text-transform:none;writing-mode:lr-tb;direction:ltr;text-orientation:mixed;dominant-baseline:auto;baseline-shift:baseline;text-anchor:start;white-space:normal;shape-padding:0;shape-margin:0;inline-size:0;clip-rule:nonzero;display:inline;overflow:visible;visibility:visible;isolation:auto;mix-blend-mode:normal;color-interpolation:sRGB;color-interpolation-filters:linearRGB;solid-color:#000000;solid-opacity:1;vector-effect:none;fill:#fefc0f;fill-opacity:1;fill-rule:evenodd;stroke:none;stroke-width:0.185208;stroke-linecap:butt;stroke-linejoin:miter;stroke-miterlimit:3.33333;stroke-dasharray:none;stroke-dashoffset:0;stroke-opacity:1;color-rendering:auto;image-rendering:auto;shape-rendering:auto;text-rendering:auto;enable-background:accumulate;stop-color:#000000"
       d="m 16.6799,25.266528 c 3.731413,0.02581 6.724802,2.907821 6.685895,6.437139 -0.03891,3.529314 -3.09537,6.369481 -6.826789,6.343674 C 12.807594,38.02154 9.8142044,35.139519 9.8531114,31.610206 9.8920245,28.080888 12.948487,25.24072 16.6799,25.266528 Z"
       id="path874"
       inkscape:export-xdpi="95.730003"
       inkscape:export-ydpi="95.730003" />
    <path
       style="color:#000000;font-style:normal;font-variant:normal;font-weight:normal;font-stretch:normal;font-size:medium;line-height:normal;font-family:sans-serif;font-variant-ligatures:normal;font-variant-position:normal;font-variant-caps:normal;font-variant-numeric:normal;font-variant-alternates:normal;font-variant-east-asian:normal;font-feature-settings:normal;font-variation-settings:normal;text-indent:0;text-align:start;text-decoration:none;text-decoration-line:none;text-decoration-style:solid;text-decoration-color:#000000;letter-spacing:normal;word-spacing:normal;text-transform:none;writing-mode:lr-tb;direction:ltr;text-orientation:mixed;dominant-baseline:auto;baseline-shift:baseline;text-anchor:start;white-space:normal;shape-padding:0;shape-margin:0;inline-size:0;clip-rule:nonzero;display:inline;overflow:visible;visibility:visible;isolation:auto;mix-blend-mode:normal;color-interpolation:sRGB;color-interpolation-filters:linearRGB;solid-color:#000000;solid-opacity:1;vector-effect:none;fill:#fefc0f;fill-opacity:1;fill-rule:evenodd;stroke:none;stroke-width:0.582199;stroke-linecap:butt;stroke-linejoin:miter;stroke-miterlimit:3.33333;stroke-dasharray:none;stroke-dashoffset:0;stroke-opacity:1;color-rendering:auto;image-rendering:auto;shape-rendering:auto;text-rendering:auto;enable-background:accumulate;stop-color:#000000"
       d="m 16.680541,25.178711 c -3.786098,-0.02618 -6.8854877,2.855671 -6.9249079,6.43079 -0.039402,3.575112 2.9968289,6.499979 6.7829209,6.526158 3.786105,0.02619 6.885495,-2.855676 6.924909,-6.430791 0.0394,-3.575119 -2.996829,-6.499972 -6.782922,-6.526157 z m -0.0012,0.175562 c 3.676733,0.02543 6.628044,2.864911 6.589638,6.348428 -0.03842,3.48351 -3.052498,6.281741 -6.729231,6.256311 -3.676732,-0.02541 -6.6280382,-2.864914 -6.5896383,-6.348428 0.038424,-3.483516 3.0525043,-6.281741 6.7292313,-6.256311 z"
       id="path876"
       inkscape:export-xdpi="95.730003"
       inkscape:export-ydpi="95.730003" />
    <path
       style="color:#000000;font-style:normal;font-variant:normal;font-weight:normal;font-stretch:normal;font-size:medium;line-height:normal;font-family:sans-serif;font-variant-ligatures:normal;font-variant-position:normal;font-variant-caps:normal;font-variant-numeric:normal;font-variant-alternates:normal;font-variant-east-asian:normal;font-feature-settings:normal;font-variation-settings:normal;text-indent:0;text-align:start;text-decoration:none;text-decoration-line:none;text-decoration-style:solid;text-decoration-color:#000000;letter-spacing:normal;word-spacing:normal;text-transform:none;writing-mode:lr-tb;direction:ltr;text-orientation:mixed;dominant-baseline:auto;baseline-shift:baseline;text-anchor:start;white-space:normal;shape-padding:0;shape-margin:0;inline-size:0;clip-rule:nonzero;display:inline;overflow:visible;visibility:visible;isolation:auto;mix-blend-mode:normal;color-interpolation:sRGB;color-interpolation-filters:linearRGB;solid-color:#000000;solid-opacity:1;vector-effect:none;fill:#440000;fill-opacity:1;fill-rule:nonzero;stroke:none;stroke-width:0.185208;stroke-linecap:butt;stroke-linejoin:miter;stroke-miterlimit:3.33333;stroke-dasharray:none;stroke-dashoffset:0;stroke-opacity:1;color-rendering:auto;image-rendering:auto;shape-rendering:auto;text-rendering:auto;enable-background:accumulate;stop-color:#000000"
       d="m 5.0881487,52.980888 v 8.997208 c 0,1.132824 1.285527,2.044818 2.882343,2.044818 H 59.852664 c 1.59682,0 2.882346,-0.911994 2.882346,-2.044818 v -8.997208 z"
       id="path880"
       inkscape:export-xdpi="95.730003"
       inkscape:export-ydpi="95.730003" />
    <path
       style="color:#000000;font-style:normal;font-variant:normal;font-weight:normal;font-stretch:normal;font-size:medium;line-height:normal;font-family:sans-serif;font-variant-ligatures:normal;font-variant-position:normal;font-variant-caps:normal;font-variant-numeric:normal;font-variant-alternates:normal;font-variant-east-asian:normal;font-feature-settings:normal;font-variation-settings:normal;text-indent:0;text-align:start;text-decoration:none;text-decoration-line:none;text-decoration-style:solid;text-decoration-color:#000000;letter-spacing:normal;word-spacing:normal;text-transform:none;writing-mode:lr-tb;direction:ltr;text-orientation:mixed;dominant-baseline:auto;baseline-shift:baseline;text-anchor:start;white-space:normal;shape-padding:0;shape-margin:0;inline-size:0;clip-rule:nonzero;display:inline;overflow:visible;visibility:visible;isolation:auto;mix-blend-mode:normal;color-interpolation:sRGB;color-interpolation-filters:linearRGB;solid-color:#000000;solid-opacity:1;vector-effect:none;fill:#440000;fill-opacity:1;fill-rule:nonzero;stroke:none;stroke-linecap:butt;stroke-linejoin:miter;stroke-miterlimit:3.33333;stroke-dasharray:none;stroke-dashoffset:0;stroke-opacity:1;color-rendering:auto;image-rendering:auto;shape-rendering:auto;text-rendering:auto;enable-background:accumulate;stop-color:#000000"
       d="m 4.9960938,52.888672 v 0.0918 8.998047 c 0,0.601441 0.3416679,1.138965 0.8808593,1.521484 0.5391914,0.382519 1.2777123,0.615234 2.09375,0.615234 H 59.853516 c 0.816039,0 1.552605,-0.232715 2.091796,-0.615234 0.539192,-0.382519 0.882813,-0.920043 0.882813,-1.521484 v -9.089844 z m 0.1855468,0.185547 H 62.642578 v 8.904297 c 0,0.531383 -0.299958,1.014409 -0.802734,1.371093 -0.502777,0.356685 -1.205548,0.580079 -1.986328,0.580079 H 7.9707031 c -0.7807782,0 -1.483552,-0.223394 -1.9863281,-0.580079 -0.5027761,-0.356684 -0.8027344,-0.83971 -0.8027344,-1.371093 z"
       id="path882"
       inkscape:export-xdpi="95.730003"
       inkscape:export-ydpi="95.730003" />
    <path
       style="color:#000000;font-style:normal;font-variant:normal;font-weight:normal;font-stretch:normal;font-size:medium;line-height:normal;font-family:sans-serif;font-variant-ligatures:normal;font-variant-position:normal;font-variant-caps:normal;font-variant-numeric:normal;font-variant-alternates:normal;font-variant-east-asian:normal;font-feature-settings:normal;font-variation-settings:normal;text-indent:0;text-align:start;text-decoration:none;text-decoration-line:none;text-decoration-style:solid;text-decoration-color:#000000;letter-spacing:normal;word-spacing:normal;text-transform:none;writing-mode:lr-tb;direction:ltr;text-orientation:mixed;dominant-baseline:auto;baseline-shift:baseline;text-anchor:start;white-space:normal;shape-padding:0;shape-margin:0;inline-size:0;clip-rule:nonzero;display:inline;overflow:visible;visibility:visible;isolation:auto;mix-blend-mode:normal;color-interpolation:sRGB;color-interpolation-filters:linearRGB;solid-color:#000000;solid-opacity:1;vector-effect:none;fill:#640000;fill-opacity:1;fill-rule:nonzero;stroke:none;stroke-width:0.185208;stroke-linecap:butt;stroke-linejoin:miter;stroke-miterlimit:3.33333;stroke-dasharray:none;stroke-dashoffset:0;stroke-opacity:1;color-rendering:auto;image-rendering:auto;shape-rendering:auto;text-rendering:auto;enable-background:accumulate;stop-color:#000000"
       d="m 62.742921,53.198168 v -3.52407 c 0,0 -11.031599,-18.74313 -11.879169,-20.18714 l -1.363289,1.36012 c -4.150568,5.23655 -8.702298,10.68196 -12.596602,16.38339 0,0 -9.925073,-7.39767 -10.526515,-7.23777 -0.601575,0.15897 0.802548,-0.32031 0,0 -0.802458,0.31777 0.491615,-0.132 0,0 -10.557257,6.75028 -21.2554133,13.38581 -21.2554133,13.38581 l 50.5446693,-0.18118 z"
       id="path892"
       inkscape:export-xdpi="95.730003"
       inkscape:export-ydpi="95.730003" />
    <path
       style="color:#000000;font-style:normal;font-variant:normal;font-weight:normal;font-stretch:normal;font-size:medium;line-height:normal;font-family:sans-serif;font-variant-ligatures:normal;font-variant-position:normal;font-variant-caps:normal;font-variant-numeric:normal;font-variant-alternates:normal;font-variant-east-asian:normal;font-feature-settings:normal;font-variation-settings:normal;text-indent:0;text-align:start;text-decoration:none;text-decoration-line:none;text-decoration-style:solid;text-decoration-color:#000000;letter-spacing:normal;word-spacing:normal;text-transform:none;writing-mode:lr-tb;direction:ltr;text-orientation:mixed;dominant-baseline:auto;baseline-shift:baseline;text-anchor:start;white-space:normal;shape-padding:0;shape-margin:0;inline-size:0;clip-rule:nonzero;display:inline;overflow:visible;visibility:visible;isolation:auto;mix-blend-mode:normal;color-interpolation:sRGB;color-interpolation-filters:linearRGB;solid-color:#000000;solid-opacity:1;vector-effect:none;fill:#000000;fill-opacity:1;fill-rule:nonzero;stroke:none;stroke-linecap:butt;stroke-linejoin:miter;stroke-miterlimit:3.33333;stroke-dasharray:none;stroke-dashoffset:0;stroke-opacity:1;color-rendering:auto;image-rendering:auto;shape-rendering:auto;text-rendering:auto;enable-background:accumulate;stop-color:#000000"
       d="m 50.882812,29.335938 -1.451171,1.449218 -0.0039,0.0039 c -4.130608,5.211368 -8.65703,10.63434 -12.542968,16.3125 -0.07174,-0.05345 -2.445223,-1.821924 -4.964844,-3.625 -1.278704,-0.915057 -2.576851,-1.825781 -3.59375,-2.498046 -0.508449,-0.336133 -0.945011,-0.611881 -1.277344,-0.800782 -0.156901,-0.08918 -0.286494,-0.155412 -0.394531,-0.203125 0.0046,-0.0024 0.01133,-0.0053 0.01563,-0.0078 0.0034,-0.002 0.0076,-0.0031 0.01172,-0.0059 0.0041,-0.0028 0.01502,-0.01306 0.01563,-0.01367 3.02e-4,-3.07e-4 0.01352,-0.01928 0.01367,-0.01953 7.3e-5,-1.24e-4 0.0097,-0.01747 0.0098,-0.01758 3.6e-5,-1.1e-4 0.0039,-0.03115 0.0039,-0.03125 -1e-6,-9.5e-5 -0.0078,-0.03703 -0.0078,-0.03711 -3.9e-5,-8.2e-5 -0.02336,-0.03118 -0.02344,-0.03125 -7.5e-5,-6.8e-5 -0.02137,-0.01362 -0.02148,-0.01367 -1.11e-4,-5.4e-5 -0.01548,-0.0058 -0.01563,-0.0059 -2.93e-4,-8.1e-5 -0.0191,-0.0039 -0.01953,-0.0039 -4.32e-4,-2.8e-5 -0.0087,-1.26e-4 -0.01172,0 -0.0061,2.53e-4 -0.0099,0.0014 -0.01367,0.002 -0.0076,0.0011 -0.01481,0.0023 -0.02148,0.0039 -0.01334,0.0031 -0.02769,0.0066 -0.04492,0.01172 -0.03445,0.01022 -0.0783,0.02379 -0.123047,0.03906 -0.08949,0.03054 -0.175729,0.062 -0.226563,0.08789 -0.0064,0.0032 -0.013,0.0058 -0.02148,0.01172 -0.0042,0.0029 -0.01696,0.01498 -0.01758,0.01563 -3.08e-4,3.21e-4 -0.01351,0.0173 -0.01367,0.01758 -5.5e-5,9.3e-5 -0.002,0.0077 -0.0039,0.01367 -0.0017,7.49e-4 -0.0061,0.0032 -0.0078,0.0039 -0.02206,0.0096 -0.03803,0.01698 -0.05078,0.02344 -0.0064,0.0032 -0.01183,0.0047 -0.01953,0.0098 -0.0039,0.0025 -0.01511,0.01317 -0.01563,0.01367 -2.58e-4,2.5e-4 -0.01746,0.01933 -0.01758,0.01953 -5.8e-5,9.8e-5 -0.0097,0.02335 -0.0098,0.02344 -1.4e-5,5.6e-5 4.93e-4,0.01374 0,0.02539 C 15.613421,46.755954 5.0722656,53.300781 5.0722656,53.300781 l 0.050781,0.169922 50.5429694,-0.181641 7.169922,0.002 v -0.09375 -3.548828 l -0.01367,-0.02148 c 0,0 -11.031823,-18.744318 -11.878907,-20.1875 z m -0.03906,0.300781 c 0.945792,1.61083 11.781273,20.017447 11.806641,20.060547 v 3.408203 H 55.666016 L 5.4453125,53.283203 C 5.7158348,53.115378 15.948216,46.766644 26.314453,40.140625 c 0.04853,-0.0171 0.08854,-0.03267 0.128906,-0.04883 0.02882,0.0077 0.06755,0.02054 0.115235,0.04102 0.100182,0.04302 0.235655,0.112552 0.398437,0.205079 0.325565,0.185053 0.760974,0.460009 1.267578,0.794921 1.013208,0.669826 2.310146,1.579769 3.587891,2.494141 2.55549,1.828744 5.035156,3.677735 5.035156,3.677735 l 0.07813,0.05859 0.05469,-0.08008 c 3.888979,-5.693642 8.4359,-11.135502 12.58593,-16.371092 z m -24.74219,10.378906 c 9.25e-4,-9.6e-5 0.0024,8e-5 0.0039,0 -0.0015,3.84e-4 -0.0049,0.0017 -0.0059,0.002 0,0 0.002,-0.002 0.002,-0.002 z"
       id="path894"
       inkscape:export-xdpi="95.730003"
       inkscape:export-ydpi="95.730003" />
    <path
       style="color:#000000;font-style:normal;font-variant:normal;font-weight:normal;font-stretch:normal;font-size:medium;line-height:normal;font-family:sans-serif;font-variant-ligatures:normal;font-variant-position:normal;font-variant-caps:normal;font-variant-numeric:normal;font-variant-alternates:normal;font-variant-east-asian:normal;font-feature-settings:normal;font-variation-settings:normal;text-indent:0;text-align:start;text-decoration:none;text-decoration-line:none;text-decoration-style:solid;text-decoration-color:#000000;letter-spacing:normal;word-spacing:normal;text-transform:none;writing-mode:lr-tb;direction:ltr;text-orientation:mixed;dominant-baseline:auto;baseline-shift:baseline;text-anchor:start;white-space:normal;shape-padding:0;shape-margin:0;inline-size:0;clip-rule:nonzero;display:inline;overflow:visible;visibility:visible;isolation:auto;mix-blend-mode:normal;color-interpolation:sRGB;color-interpolation-filters:linearRGB;solid-color:#000000;solid-opacity:1;vector-effect:none;fill:#000000;fill-opacity:1;fill-rule:nonzero;stroke:none;stroke-width:0.185208;stroke-linecap:round;stroke-linejoin:round;stroke-miterlimit:3.33333;stroke-dasharray:none;stroke-dashoffset:0;stroke-opacity:1;paint-order:normal;color-rendering:auto;image-rendering:auto;shape-rendering:auto;text-rendering:auto;enable-background:accumulate;stop-color:#000000"
       d="M 5.6942183,3.101063e-4 C 2.2801569,3.101063e-4 3.4079727e-4,2.8780941 3.4079727e-4,5.8507306 V 61.882597 c 0,2.972638 2.27981110273,5.850421 5.69387750273,5.850421 H 62.039114 c 3.414065,0 5.693875,-2.877783 5.693875,-5.850421 V 5.8507306 c 0,-2.9726365 -2.279815,-5.8504204937 -5.693875,-5.8504204937 z m 0,4.6970798937 H 62.039114 c 0.0543,0 0.566665,0.2457946 0.566665,1.1533406 V 61.882597 c 0,0.907544 -0.512371,1.152453 -0.566665,1.152453 H 5.6942183 c -0.054294,0 -0.5666663,-0.244909 -0.5666663,-1.152453 V 5.8507306 c 0,-0.907546 0.5123681,-1.1533406 0.5666663,-1.1533406 z"
       id="path898"
       inkscape:export-xdpi="95.730003"
       inkscape:export-ydpi="95.730003" />
    <path
       style="color:#000000;font-style:normal;font-variant:normal;font-weight:normal;font-stretch:normal;font-size:medium;line-height:normal;font-family:sans-serif;font-variant-ligatures:normal;font-variant-position:normal;font-variant-caps:normal;font-variant-numeric:normal;font-variant-alternates:normal;font-variant-east-asian:normal;font-feature-settings:normal;font-variation-settings:normal;text-indent:0;text-align:start;text-decoration:none;text-decoration-line:none;text-decoration-style:solid;text-decoration-color:#000000;letter-spacing:normal;word-spacing:normal;text-transform:none;writing-mode:lr-tb;direction:ltr;text-orientation:mixed;dominant-baseline:auto;baseline-shift:baseline;text-anchor:start;white-space:normal;shape-padding:0;shape-margin:0;inline-size:0;clip-rule:nonzero;display:inline;overflow:visible;visibility:visible;isolation:auto;mix-blend-mode:normal;color-interpolation:sRGB;color-interpolation-filters:linearRGB;solid-color:#000000;solid-opacity:1;vector-effect:none;fill:#000000;fill-opacity:1;fill-rule:nonzero;stroke:none;stroke-width:0.476369;stroke-linecap:round;stroke-linejoin:round;stroke-miterlimit:3.33333;stroke-dasharray:none;stroke-dashoffset:0;stroke-opacity:1;paint-order:normal;color-rendering:auto;image-rendering:auto;shape-rendering:auto;text-rendering:auto;enable-background:accumulate;stop-color:#000000"
       d="m 5.6942183,-0.08875094 c -3.4733929,0 -5.79107607,2.92531684 -5.79107607,5.93948154 V 61.882597 c 0,3.01417 2.31767877,5.939481 5.79107607,5.939481 H 62.039114 c 3.473396,0 5.791077,-2.925311 5.791077,-5.939481 V 5.8507306 c 0,-3.0141647 -2.317686,-5.93948154 -5.791077,-5.93948154 z m 0,0.1781221 H 62.039114 c 3.35473,0 5.596677,2.83025064 5.596677,5.76135944 V 61.882597 c 0,2.931111 -2.241942,5.761361 -5.596677,5.761361 H 5.6942183 c -3.3547354,0 -5.59667943,-2.83025 -5.59667943,-5.761361 V 5.8507306 c 0,-2.9311088 2.24194903,-5.76135944 5.59667943,-5.76135944 z m 0,4.51895754 c -0.046615,0 -0.056214,0.010128 -0.081647,0.021372 -0.025435,0.011245 -0.054387,0.027505 -0.086506,0.048984 -0.064239,0.042955 -0.1412381,0.1085545 -0.2148085,0.20395 C 5.1641162,5.0734252 5.0303534,5.3816702 5.0303534,5.8507283 V 61.882597 c 0,0.469057 0.1337325,0.777508 0.2809031,0.968095 0.073586,0.09529 0.1505552,0.161084 0.2148085,0.203952 0.032129,0.02143 0.061074,0.03689 0.086506,0.04809 0.02543,0.01122 0.035169,0.02139 0.081647,0.02139 h 56.344896 c 0.04648,0 0.05621,-0.01017 0.08165,-0.02139 0.02543,-0.01122 0.05438,-0.02667 0.08651,-0.04809 0.06425,-0.04286 0.141219,-0.108659 0.214808,-0.203952 0.147171,-0.190587 0.280901,-0.499038 0.280901,-0.968095 V 5.8507306 c 0,-0.4690581 -0.133764,-0.7773032 -0.280901,-0.9680936 -0.07357,-0.095395 -0.150571,-0.1609969 -0.214808,-0.20395 -0.0321,-0.021477 -0.06107,-0.037738 -0.08651,-0.048984 -0.02543,-0.011245 -0.03504,-0.021372 -0.08165,-0.021372 z m 0,0.1781221 H 62.039114 c -0.03304,0 -0.01493,-0.00306 -0.002,0.00269 0.01299,0.00574 0.03285,0.016315 0.05637,0.032061 0.04713,0.031495 0.108787,0.084375 0.170098,0.1638723 0.122618,0.1589932 0.244941,0.4271853 0.244941,0.8656736 V 61.882597 c 0,0.438487 -0.122353,0.706921 -0.244941,0.865674 -0.0613,0.07938 -0.12301,0.131568 -0.170098,0.162981 -0.02354,0.01569 -0.0434,0.02636 -0.05637,0.03206 -0.01299,0.0057 -0.03095,0.0027 0.002,0.0027 H 5.6942183 c 0.0329,0 0.014925,0.0032 0.00194,-0.0027 -0.012979,-0.0057 -0.03283,-0.01637 -0.056375,-0.03206 -0.047088,-0.03142 -0.1088029,-0.0836 -0.1700971,-0.162981 -0.1225884,-0.158753 -0.24494,-0.427187 -0.24494,-0.865674 V 5.8507306 c 0,-0.4384884 0.1223217,-0.7066804 0.24494,-0.8656736 0.061309,-0.079497 0.1229955,-0.1323783 0.1700971,-0.1638723 0.023549,-0.015745 0.043396,-0.026325 0.056375,-0.032061 0.012979,-0.00574 0.031098,-0.00269 -0.00194,-0.00269 z"
       id="path900"
       inkscape:export-xdpi="95.730003"
       inkscape:export-ydpi="95.730003" />
  </g>
</svg>
